<?xml version="1.0" encoding="utf-8"?>
<!-- Generator: Adobe Illustrator 16.0.0, SVG Export Plug-In . SVG Version: 6.00 Build 0)  -->
<!DOCTYPE svg PUBLIC "-//W3C//DTD SVG 1.1//EN" "http://www.w3.org/Graphics/SVG/1.1/DTD/svg11.dtd">
<svg version="1.1" id="Capa_1" xmlns="http://www.w3.org/2000/svg" xmlns:xlink="http://www.w3.org/1999/xlink" x="0px" y="0px"
	 width="32px" height="32px" viewBox="0 0 32 32" enable-background="new 0 0 32 32" xml:space="preserve">
<path fill="#75EA9C" d="M12,11c0,3-3.5,3-3.5,3S5,14,5,11s3.5-7,3.5-7S12,8,12,11z"/>
<path fill="#75EA9C" d="M21,8c0,3-3.5,3-3.5,3S14,11,14,8s3.5-7,3.5-7S21,5,21,8z"/>
<path fill="#75EA9C" d="M30,11c0,3-3.5,3-3.5,3S23,14,23,11s3.5-7,3.5-7S30,8,30,11z"/>
<path fill="#FFE4A9" d="M27.3,26.89l-0.51,0.261C23.6,28.74,21.08,30,18,30c-2.939,0-10.91-2.59-12.16-3H1v-9h4
	c0.38,0,0.59,0,1.29-0.71c1.08-1.07,2.28-1.6,3.68-1.6c1.16,0,2.26,0.359,3.32,0.71C14.25,16.71,15.16,17,16,17c2.39,0,6,0,6,2.5
	S20.01,22,17,22h-0.1c-0.5,0-1.09,0-1.471,0.04c0.43,1.19,1.01,1.38,2.891,2.01c0.3,0.101,0.64,0.15,1.01,0.15
	c1.32,0,2.86-0.641,4.21-1.21C24.8,22.46,25.89,22,26.85,22s1.841,0.78,2.091,1.84C29.16,24.81,28.85,26.12,27.3,26.89z"/>
<rect x="1" y="18" fill="#67DDE0" width="4" height="9"/>
<path fill="#4D5152" d="M26.85,22c-0.27,0-0.56,0.04-0.85,0.1v0.4c0,0.14,0.06,0.18,0.14,0.18c0.101,0,0.221-0.04,0.36-0.04
	c0.28,0,0.5,0.141,0.5-0.14v-0.48C26.95,22,26.9,22,26.85,22z"/>
<path fill="#4D5152" d="M28.94,23.84c-0.24-1-1.04-1.76-1.94-1.82v0.48c0,0.28-0.22,0.14-0.5,0.14c-0.14,0-0.26,0.04-0.36,0.04
	c-0.08,0-0.14-0.04-0.14-0.18v-0.4c-0.74,0.17-1.56,0.511-2.46,0.891c-1.35,0.569-2.89,1.21-4.21,1.21c-0.37,0-0.71-0.05-1.01-0.15
	c-0.11-0.04-0.221-0.069-0.32-0.1v-1.96c2.44-0.021,4-0.28,4-2.49c0-1.86-2-2.34-4-2.46v-6.08c0.96-0.13,3-0.67,3-2.96
	c0-3-3.5-7-3.5-7S14,5,14,8c0,2.29,2.04,2.83,3,2.96v6.05C16.65,17,16.32,17,16,17c-0.84,0-1.75-0.29-2.71-0.6
	c-1.06-0.351-2.16-0.71-3.32-0.71c-0.34,0-0.66,0.03-0.97,0.09v-1.82c0.96-0.13,3-0.67,3-2.96c0-3-3.5-7-3.5-7S5,8,5,11
	c0,2.29,2.04,2.83,3,2.96v2.13c-0.61,0.271-1.17,0.67-1.71,1.2C5.59,18,5.38,18,5,18H1v9h4.84c1.25,0.41,9.22,3,12.16,3
	c3.08,0,5.6-1.26,8.79-2.85l0.51-0.261C28.85,26.12,29.16,24.81,28.94,23.84z M15,8c0-1.68,1.44-3.98,2.5-5.4
	C18.56,4.02,20,6.32,20,8c0,1.45-1.24,1.85-2,1.96V7.5C18,7.22,17.78,7,17.5,7S17,7.22,17,7.5v2.46C16.24,9.85,15,9.45,15,8z M6,11
	c0-1.68,1.44-3.98,2.5-5.4C9.56,7.02,11,9.32,11,11c0,1.45-1.24,1.85-2,1.96V10.5C9,10.22,8.78,10,8.5,10S8,10.22,8,10.5v2.46
	C7.24,12.85,6,12.45,6,11z M4,26H2v-7h2V26z M26.85,26C23.46,27.69,21,29,18,29S6,26,6,26H5v-7c0.52,0,1,0,2-1
	c0.98-0.98,1.97-1.31,2.97-1.31c2,0,4.03,1.31,6.03,1.31s5,0,5,1.5S20,21,17,21h-0.1c-1.93,0-2.86,0.01-2.5,1.12
	C15,24,15.97,24.32,18,25c0.43,0.14,0.88,0.2,1.33,0.2c2.729,0,5.8-2.2,7.52-2.2C27.85,23,28.85,25,26.85,26z M17,22v1.59
	c-0.88-0.359-1.26-0.7-1.57-1.55C15.81,22,16.4,22,16.9,22H17z"/>
<path fill="#4D5152" d="M26.5,4c0,0-3.5,4-3.5,7c0,2.29,2.04,2.83,3,2.96v8.54c0,0.14,0.06,0.18,0.14,0.18
	c0.101,0,0.221-0.04,0.36-0.04c0.28,0,0.5,0.141,0.5-0.14v-8.54c0.96-0.13,3-0.67,3-2.96C30,8,26.5,4,26.5,4z M27,12.96V10.5
	c0-0.28-0.22-0.5-0.5-0.5S26,10.22,26,10.5v2.46c-0.76-0.11-2-0.51-2-1.96c0-1.68,1.44-3.98,2.5-5.4C27.56,7.02,29,9.32,29,11
	C29,12.45,27.76,12.85,27,12.96z"/>
</svg>
